# xmcd
#
# Track frame offsets:
#	187
#	13287
#	24000
#	37162
#	46100
#	58775
#	70375
#	83162
#	94850
#	104625
#	114600
#	125625
#	138862
#	149325
#	158212
#	170175
#	181237
#	191875
#	206637
#	218800
#	230037
#	245150
#	256675
#	269600
#
# Disc length: 3759 seconds
# Revision: 0
# Processed by: cddbd v1.5.2PL0 Copyright (c) Steve Scherf et al.
# Submitted via: dBpowerAMP V12.0
#
DISCID=720ead18
DTITLE=Connie Francis - Sings Country and Western Hits
DYEAR=1900
DGENRE=
TTITLE0=Tennessee Waltz
TTITLE1=Your Cheatin' Heart
TTITLE2=My Special Angel
TTITLE3=Hearts of Stone
TTITLE4=Half as Much
TTITLE5=Send Me the Pillow That You Dream on
TTITLE6=Wolverton Mountain
TTITLE7=Please Help Me, I'm Falling
TTITLE8=Singing the Blues
TTITLE9=Walk on by
TTITLE10=If You've Got the Money, I've Got the Time
TTITLE11=Mule Skinner Blues
TTITLE12=Making Believe
TTITLE13=Blue, Blue Day
TTITLE14=No Letter Today
TTITLE15=Bye Bye Love
TTITLE16=Wabash Cannonball
TTITLE17=I Really Don't Want to Know
TTITLE18=I Fall to Pieces
TTITLE19=Someday (You'll Want Me to Want You)
TTITLE20=He Thinks I Still Care
TTITLE21=I'm a Fool to Care
TTITLE22=I Can't Stop Loving You
TTITLE23=Heartaches by the Number
EXTD=
EXTT0=
EXTT1=
EXTT2=
EXTT3=
EXTT4=
EXTT5=
EXTT6=
EXTT7=
EXTT8=
EXTT9=
EXTT10=
EXTT11=
EXTT12=
EXTT13=
EXTT14=
EXTT15=
EXTT16=
EXTT17=
EXTT18=
EXTT19=
EXTT20=
EXTT21=
EXTT22=
EXTT23=
PLAYORDER=
